M48
METRIC,LZ,000.000
;FILE_FORMAT=3:3
;TYPE=PLATED
;Layer: PTH_Through
;EasyEDA v6.5.9, 2022-08-08 08:54:15
;dbf975fc70ca49248872ab73744ea534,d11c6626c55947548156d30ff75eed07,10
;Gerber Generator version 0.2
;Holesize 1 = 0.800 mm
T01C0.800
;Holesize 2 = 0.813 mm
T02C0.813
;Holesize 3 = 0.850 mm
T03C0.850
;Holesize 4 = 0.915 mm
T04C0.915
;Holesize 5 = 1.000 mm
T05C1.000
;Holesize 6 = 1.016 mm
T06C1.016
%
G05
G90
T01
X011938Y065024
X029464Y065024
X023876Y065024
X006096Y065024
T02
X040386Y031979
X040386Y029489
T03
X067691Y064135
X067691Y061595
X067691Y059055
X067691Y020955
X067691Y018415
X067691Y015875
X085471Y015875
X085471Y018415
X085471Y020955
X085471Y023495
X085471Y026035
X085471Y028575
X085471Y031115
X085471Y033655
X085471Y036195
X085471Y038735
X085471Y041275
X085471Y043815
X085471Y046355
X085471Y048895
X085471Y051435
X085471Y053975
X085471Y056515
X085471Y059055
X085471Y061595
X085471Y064135
T04
X097790Y029083
X100330Y029083
X102870Y029083
X105410Y029083
X107950Y029083
X110490Y029083
X067691Y056515
X067691Y053975
X067691Y051435
X067691Y048895
X067691Y046355
X067691Y043815
X067691Y041275
X067691Y038735
X067691Y036195
X067691Y033655
X067691Y031115
X067691Y028575
X067691Y026035
X067691Y023495
T05
X016002Y055880
X016002Y038354
X056007Y055880
X056007Y038354
X050927Y063246
X053467Y063246
X056007Y063246
T06
X004699Y054735
X004699Y052195
X004699Y049655
X004699Y028067
X004699Y025527
X004699Y022987
X004699Y045974
X004699Y043434
X004699Y040894
X005142Y005842
X005142Y008382
X005142Y010922
M30
