G04 Layer: BottomSolderMaskLayer*
G04 EasyEDA v6.5.9, 2022-08-08 08:54:15*
G04 dbf975fc70ca49248872ab73744ea534,d11c6626c55947548156d30ff75eed07,10*
G04 Gerber Generator version 0.2*
G04 Scale: 100 percent, Rotated: No, Reflected: No *
G04 Dimensions in millimeters *
G04 leading zeros omitted , absolute positions ,4 integer and 5 decimal *
%FSLAX45Y45*%
%MOMM*%

%ADD10C,1.6256*%
%ADD11C,1.8016*%
%ADD12C,3.1016*%
%ADD13C,2.0032*%

%LPD*%
G36*
X9702774Y2827012D02*
G01*
X9701250Y2827266D01*
X9699726Y2828028D01*
X9698710Y2829044D01*
X9697948Y2830568D01*
X9697694Y2832092D01*
X9697720Y2832100D01*
X9697720Y2984500D01*
X9697694Y2984492D01*
X9697948Y2986016D01*
X9698710Y2987540D01*
X9699726Y2988556D01*
X9701250Y2989318D01*
X9702774Y2989572D01*
X9702800Y2989579D01*
X9855200Y2989579D01*
X9855174Y2989572D01*
X9856698Y2989318D01*
X9858222Y2988556D01*
X9859238Y2987540D01*
X9860000Y2986016D01*
X9860254Y2984492D01*
X9860279Y2984500D01*
X9860279Y2832100D01*
X9860254Y2832092D01*
X9860000Y2830568D01*
X9859238Y2829044D01*
X9858222Y2828028D01*
X9856698Y2827266D01*
X9855174Y2827020D01*
X9702800Y2827020D01*
G37*
D10*
G01*
X10032974Y2908300D03*
G01*
X10286974Y2908300D03*
G01*
X10540974Y2908300D03*
G01*
X10794974Y2908300D03*
G01*
X11048974Y2908300D03*
G01*
X6769074Y6413500D03*
G01*
X6769074Y6159500D03*
G36*
X6692879Y5824209D02*
G01*
X6691355Y5824463D01*
X6689831Y5825225D01*
X6688815Y5826241D01*
X6688053Y5827765D01*
X6687799Y5829289D01*
X6687820Y5829300D01*
X6687820Y5981700D01*
X6687799Y5981689D01*
X6688053Y5983213D01*
X6688815Y5984737D01*
X6689831Y5985753D01*
X6691355Y5986515D01*
X6692879Y5986769D01*
X6692900Y5986779D01*
X6845300Y5986779D01*
X6845279Y5986769D01*
X6846803Y5986515D01*
X6848327Y5985753D01*
X6849343Y5984737D01*
X6850105Y5983213D01*
X6850359Y5981689D01*
X6850379Y5981700D01*
X6850379Y5829300D01*
X6850359Y5829289D01*
X6850105Y5827765D01*
X6849343Y5826241D01*
X6848327Y5825225D01*
X6846803Y5824463D01*
X6845279Y5824220D01*
X6692900Y5824220D01*
G37*
G36*
X6692879Y2014209D02*
G01*
X6691355Y2014463D01*
X6689831Y2015225D01*
X6688815Y2016241D01*
X6688053Y2017765D01*
X6687799Y2019289D01*
X6687820Y2019300D01*
X6687820Y2171700D01*
X6687799Y2171689D01*
X6688053Y2173213D01*
X6688815Y2174737D01*
X6689831Y2175753D01*
X6691355Y2176515D01*
X6692879Y2176769D01*
X6692900Y2176779D01*
X6845300Y2176779D01*
X6845279Y2176769D01*
X6846803Y2176515D01*
X6848327Y2175753D01*
X6849343Y2174737D01*
X6850105Y2173213D01*
X6850359Y2171689D01*
X6850379Y2171700D01*
X6850379Y2019300D01*
X6850359Y2019289D01*
X6850105Y2017765D01*
X6849343Y2016241D01*
X6848327Y2015225D01*
X6846803Y2014463D01*
X6845279Y2014220D01*
X6692900Y2014220D01*
G37*
G01*
X6769074Y1841500D03*
G01*
X6769074Y1587500D03*
G01*
X8547074Y1587500D03*
G01*
X8547074Y1841500D03*
G36*
X8470879Y2014209D02*
G01*
X8469355Y2014463D01*
X8467831Y2015225D01*
X8466815Y2016241D01*
X8466053Y2017765D01*
X8465799Y2019289D01*
X8465820Y2019300D01*
X8465820Y2171700D01*
X8465799Y2171689D01*
X8466053Y2173213D01*
X8466815Y2174737D01*
X8467831Y2175753D01*
X8469355Y2176515D01*
X8470879Y2176769D01*
X8470900Y2176779D01*
X8623300Y2176779D01*
X8623279Y2176769D01*
X8624803Y2176515D01*
X8626327Y2175753D01*
X8627343Y2174737D01*
X8628105Y2173213D01*
X8628359Y2171689D01*
X8628379Y2171700D01*
X8628379Y2019300D01*
X8628359Y2019289D01*
X8628105Y2017765D01*
X8627343Y2016241D01*
X8626327Y2015225D01*
X8624803Y2014463D01*
X8623279Y2014220D01*
X8470900Y2014220D01*
G37*
G01*
X8547074Y2349500D03*
G01*
X8547074Y2603500D03*
G01*
X8547074Y2857500D03*
G01*
X8547074Y3111500D03*
G36*
X8470879Y3284209D02*
G01*
X8469355Y3284463D01*
X8467831Y3285225D01*
X8466815Y3286241D01*
X8466053Y3287765D01*
X8465799Y3289289D01*
X8465820Y3289300D01*
X8465820Y3441700D01*
X8465799Y3441689D01*
X8466053Y3443213D01*
X8466815Y3444737D01*
X8467831Y3445753D01*
X8469355Y3446515D01*
X8470879Y3446769D01*
X8470900Y3446779D01*
X8623300Y3446779D01*
X8623279Y3446769D01*
X8624803Y3446515D01*
X8626327Y3445753D01*
X8627343Y3444737D01*
X8628105Y3443213D01*
X8628359Y3441689D01*
X8628379Y3441700D01*
X8628379Y3289300D01*
X8628359Y3289289D01*
X8628105Y3287765D01*
X8627343Y3286241D01*
X8626327Y3285225D01*
X8624803Y3284463D01*
X8623279Y3284220D01*
X8470900Y3284220D01*
G37*
G01*
X8547074Y3619500D03*
G01*
X8547074Y3873500D03*
G01*
X8547074Y4127500D03*
G01*
X8547074Y4381500D03*
G36*
X8470879Y4554209D02*
G01*
X8469355Y4554463D01*
X8467831Y4555225D01*
X8466815Y4556241D01*
X8466053Y4557765D01*
X8465799Y4559289D01*
X8465820Y4559300D01*
X8465820Y4711700D01*
X8465799Y4711689D01*
X8466053Y4713213D01*
X8466815Y4714737D01*
X8467831Y4715753D01*
X8469355Y4716515D01*
X8470879Y4716769D01*
X8470900Y4716779D01*
X8623300Y4716779D01*
X8623279Y4716769D01*
X8624803Y4716515D01*
X8626327Y4715753D01*
X8627343Y4714737D01*
X8628105Y4713213D01*
X8628359Y4711689D01*
X8628379Y4711700D01*
X8628379Y4559300D01*
X8628359Y4559289D01*
X8628105Y4557765D01*
X8627343Y4556241D01*
X8626327Y4555225D01*
X8624803Y4554463D01*
X8623279Y4554220D01*
X8470900Y4554220D01*
G37*
G01*
X8547074Y4889500D03*
G01*
X8547074Y5143500D03*
G01*
X8547074Y5397500D03*
G01*
X8547074Y5651500D03*
G36*
X8470879Y5824209D02*
G01*
X8469355Y5824463D01*
X8467831Y5825225D01*
X8466815Y5826241D01*
X8466053Y5827765D01*
X8465799Y5829289D01*
X8465820Y5829300D01*
X8465820Y5981700D01*
X8465799Y5981689D01*
X8466053Y5983213D01*
X8466815Y5984737D01*
X8467831Y5985753D01*
X8469355Y5986515D01*
X8470879Y5986769D01*
X8470900Y5986779D01*
X8623300Y5986779D01*
X8623279Y5986769D01*
X8624803Y5986515D01*
X8626327Y5985753D01*
X8627343Y5984737D01*
X8628105Y5983213D01*
X8628359Y5981689D01*
X8628379Y5981700D01*
X8628379Y5829300D01*
X8628359Y5829289D01*
X8628105Y5827765D01*
X8627343Y5826241D01*
X8626327Y5825225D01*
X8624803Y5824463D01*
X8623279Y5824220D01*
X8470900Y5824220D01*
G37*
G01*
X8547074Y6159500D03*
G01*
X8547074Y6413500D03*
G01*
X6769074Y5651500D03*
G01*
X6769074Y5397500D03*
G01*
X6769074Y5143500D03*
G01*
X6769074Y4889500D03*
G36*
X6692879Y4554209D02*
G01*
X6691355Y4554463D01*
X6689831Y4555225D01*
X6688815Y4556241D01*
X6688053Y4557765D01*
X6687799Y4559289D01*
X6687820Y4559300D01*
X6687820Y4711700D01*
X6687799Y4711689D01*
X6688053Y4713213D01*
X6688815Y4714737D01*
X6689831Y4715753D01*
X6691355Y4716515D01*
X6692879Y4716769D01*
X6692900Y4716779D01*
X6845300Y4716779D01*
X6845279Y4716769D01*
X6846803Y4716515D01*
X6848327Y4715753D01*
X6849343Y4714737D01*
X6850105Y4713213D01*
X6850359Y4711689D01*
X6850379Y4711700D01*
X6850379Y4559300D01*
X6850359Y4559289D01*
X6850105Y4557765D01*
X6849343Y4556241D01*
X6848327Y4555225D01*
X6846803Y4554463D01*
X6845279Y4554220D01*
X6692900Y4554220D01*
G37*
G01*
X6769074Y4381500D03*
G01*
X6769074Y4127500D03*
G01*
X6769074Y3873500D03*
G01*
X6769074Y3619500D03*
G36*
X6692879Y3284209D02*
G01*
X6691355Y3284463D01*
X6689831Y3285225D01*
X6688815Y3286241D01*
X6688053Y3287765D01*
X6687799Y3289289D01*
X6687820Y3289300D01*
X6687820Y3441700D01*
X6687799Y3441689D01*
X6688053Y3443213D01*
X6688815Y3444737D01*
X6689831Y3445753D01*
X6691355Y3446515D01*
X6692879Y3446769D01*
X6692900Y3446779D01*
X6845300Y3446779D01*
X6845279Y3446769D01*
X6846803Y3446515D01*
X6848327Y3445753D01*
X6849343Y3444737D01*
X6850105Y3443213D01*
X6850359Y3441689D01*
X6850379Y3441700D01*
X6850379Y3289300D01*
X6850359Y3289289D01*
X6850105Y3287765D01*
X6849343Y3286241D01*
X6848327Y3285225D01*
X6846803Y3284463D01*
X6845279Y3284220D01*
X6692900Y3284220D01*
G37*
G01*
X6769074Y3111500D03*
G01*
X6769074Y2857500D03*
G01*
X6769074Y2603500D03*
G01*
X6769074Y2349500D03*
D11*
G01*
X469900Y5473496D03*
G01*
X469900Y5219496D03*
G01*
X469900Y4965496D03*
G01*
X469900Y2806700D03*
G01*
X469900Y2552700D03*
G01*
X469900Y2298700D03*
G01*
X469900Y4597400D03*
G01*
X469900Y4343400D03*
G01*
X469900Y4089400D03*
G01*
X514197Y584200D03*
G01*
X514197Y838200D03*
G01*
X514197Y1092200D03*
G36*
X1093723Y6397244D02*
G01*
X1093795Y6397310D01*
X1092271Y6397564D01*
X1090747Y6398326D01*
X1089731Y6399342D01*
X1088969Y6400866D01*
X1088715Y6402390D01*
X1088644Y6402323D01*
X1088644Y6602476D01*
X1088715Y6602389D01*
X1088969Y6603913D01*
X1089731Y6605437D01*
X1090747Y6606453D01*
X1092271Y6607215D01*
X1093795Y6607469D01*
X1093723Y6607555D01*
X1293876Y6607555D01*
X1293794Y6607469D01*
X1295318Y6607215D01*
X1296842Y6606453D01*
X1297858Y6605437D01*
X1298620Y6603913D01*
X1298874Y6602389D01*
X1298955Y6602476D01*
X1298955Y6402323D01*
X1298874Y6402390D01*
X1298620Y6400866D01*
X1297858Y6399342D01*
X1296842Y6398326D01*
X1295318Y6397564D01*
X1293794Y6397310D01*
X1293876Y6397244D01*
G37*
G36*
X2846324Y6397244D02*
G01*
X2846395Y6397307D01*
X2844871Y6397561D01*
X2843347Y6398323D01*
X2842331Y6399339D01*
X2841569Y6400863D01*
X2841315Y6402387D01*
X2841243Y6402323D01*
X2841243Y6602476D01*
X2841315Y6602387D01*
X2841569Y6603911D01*
X2842331Y6605435D01*
X2843347Y6606451D01*
X2844871Y6607213D01*
X2846395Y6607467D01*
X2846324Y6607555D01*
X3046475Y6607555D01*
X3046394Y6607467D01*
X3047918Y6607213D01*
X3049442Y6606451D01*
X3050458Y6605435D01*
X3051220Y6603911D01*
X3051474Y6602387D01*
X3051556Y6602476D01*
X3051556Y6402323D01*
X3051474Y6402387D01*
X3051220Y6400863D01*
X3050458Y6399339D01*
X3049442Y6398323D01*
X3047918Y6397561D01*
X3046394Y6397307D01*
X3046475Y6397244D01*
G37*
G36*
X3977893Y3132073D02*
G01*
X3978013Y3132195D01*
X3976489Y3132449D01*
X3974965Y3133211D01*
X3973949Y3134227D01*
X3973187Y3135751D01*
X3972933Y3137275D01*
X3972813Y3137154D01*
X3972813Y3258312D01*
X3972933Y3258433D01*
X3973187Y3259957D01*
X3973949Y3261481D01*
X3974965Y3262497D01*
X3976489Y3263259D01*
X3978013Y3263513D01*
X3977893Y3263392D01*
X4099052Y3263392D01*
X4099171Y3263513D01*
X4100695Y3263259D01*
X4102219Y3262497D01*
X4103235Y3261481D01*
X4103997Y3259957D01*
X4104251Y3258433D01*
X4104131Y3258312D01*
X4104131Y3137154D01*
X4104251Y3137275D01*
X4103997Y3135751D01*
X4103235Y3134227D01*
X4102219Y3133211D01*
X4100695Y3132449D01*
X4099171Y3132195D01*
X4099052Y3132073D01*
G37*
G36*
X3977893Y2883154D02*
G01*
X3978013Y2883275D01*
X3976489Y2883529D01*
X3974965Y2884291D01*
X3973949Y2885307D01*
X3973187Y2886831D01*
X3972933Y2888355D01*
X3972813Y2888234D01*
X3972813Y3009392D01*
X3972933Y3009513D01*
X3973187Y3011037D01*
X3973949Y3012561D01*
X3974965Y3013577D01*
X3976489Y3014339D01*
X3978013Y3014593D01*
X3977893Y3014471D01*
X4099052Y3014471D01*
X4099171Y3014593D01*
X4100695Y3014339D01*
X4102219Y3013577D01*
X4103235Y3012561D01*
X4103997Y3011037D01*
X4104251Y3009513D01*
X4104131Y3009392D01*
X4104131Y2888234D01*
X4104251Y2888355D01*
X4103997Y2886831D01*
X4103235Y2885307D01*
X4102219Y2884291D01*
X4100695Y2883529D01*
X4099171Y2883275D01*
X4099052Y2883154D01*
G37*
D12*
G01*
X1600197Y5587989D03*
G01*
X1600197Y3835389D03*
G01*
X5600697Y5587989D03*
G01*
X5600697Y3835389D03*
G36*
X2287524Y6397244D02*
G01*
X2287600Y6397320D01*
X2286076Y6397574D01*
X2284552Y6398336D01*
X2283536Y6399352D01*
X2282774Y6400876D01*
X2282520Y6402400D01*
X2282443Y6402323D01*
X2282443Y6602476D01*
X2282520Y6602399D01*
X2282774Y6603923D01*
X2283536Y6605447D01*
X2284552Y6606463D01*
X2286076Y6607225D01*
X2287600Y6607479D01*
X2287524Y6607555D01*
X2487675Y6607555D01*
X2487599Y6607479D01*
X2489123Y6607225D01*
X2490647Y6606463D01*
X2491663Y6605447D01*
X2492425Y6603923D01*
X2492679Y6602399D01*
X2492756Y6602476D01*
X2492756Y6402323D01*
X2492679Y6402400D01*
X2492425Y6400876D01*
X2491663Y6399352D01*
X2490647Y6398336D01*
X2489123Y6397574D01*
X2487599Y6397320D01*
X2487675Y6397244D01*
G37*
G36*
X509523Y6397244D02*
G01*
X509600Y6397320D01*
X508076Y6397574D01*
X506552Y6398336D01*
X505536Y6399352D01*
X504774Y6400876D01*
X504520Y6402400D01*
X504444Y6402323D01*
X504444Y6602476D01*
X504520Y6602399D01*
X504774Y6603923D01*
X505536Y6605447D01*
X506552Y6606463D01*
X508076Y6607225D01*
X509600Y6607479D01*
X509523Y6607555D01*
X709676Y6607555D01*
X709599Y6607479D01*
X711123Y6607225D01*
X712647Y6606463D01*
X713663Y6605447D01*
X714425Y6603923D01*
X714679Y6602399D01*
X714755Y6602476D01*
X714755Y6402323D01*
X714679Y6402400D01*
X714425Y6400876D01*
X713663Y6399352D01*
X712647Y6398336D01*
X711123Y6397574D01*
X709599Y6397320D01*
X709676Y6397244D01*
G37*
D13*
G01*
X5092689Y6324587D03*
G01*
X5346689Y6324587D03*
G01*
X5600689Y6324587D03*
M02*
