G04 Layer: TopSilkscreenLayer*
G04 EasyEDA v6.5.9, 2022-08-08 08:54:15*
G04 dbf975fc70ca49248872ab73744ea534,d11c6626c55947548156d30ff75eed07,10*
G04 Gerber Generator version 0.2*
G04 Scale: 100 percent, Rotated: No, Reflected: No *
G04 Dimensions in millimeters *
G04 leading zeros omitted , absolute positions ,4 integer and 5 decimal *
%FSLAX45Y45*%
%MOMM*%

%ADD10C,0.2030*%
%ADD11C,0.2032*%
%ADD12C,0.1524*%
%ADD13C,0.1016*%
%ADD14C,0.2540*%
%ADD15C,0.0112*%

%LPD*%
D10*
X9405848Y3777498D02*
G01*
X9394926Y3772164D01*
X9384004Y3761242D01*
X9378416Y3750320D01*
X9378416Y3728476D01*
X9384004Y3717554D01*
X9394926Y3706632D01*
X9405848Y3701044D01*
X9422104Y3695710D01*
X9449282Y3695710D01*
X9465792Y3701044D01*
X9476714Y3706632D01*
X9487636Y3717554D01*
X9492970Y3728476D01*
X9492970Y3750320D01*
X9487636Y3761242D01*
X9476714Y3772164D01*
X9465792Y3777498D01*
X9449282Y3777498D01*
X9449282Y3750320D02*
G01*
X9449282Y3777498D01*
X9378416Y3813566D02*
G01*
X9492970Y3813566D01*
X9378416Y3813566D02*
G01*
X9492970Y3889766D01*
X9378416Y3889766D02*
G01*
X9492970Y3889766D01*
X9378416Y3925834D02*
G01*
X9492970Y3925834D01*
X9378416Y3925834D02*
G01*
X9378416Y3963934D01*
X9384004Y3980444D01*
X9394926Y3991366D01*
X9405848Y3996700D01*
X9422104Y4002288D01*
X9449282Y4002288D01*
X9465792Y3996700D01*
X9476714Y3991366D01*
X9487636Y3980444D01*
X9492970Y3963934D01*
X9492970Y3925834D01*
D11*
X9561047Y3695684D02*
G01*
X9675601Y3739372D01*
X9561047Y3783060D02*
G01*
X9675601Y3739372D01*
X9588479Y3900662D02*
G01*
X9577557Y3895328D01*
X9566635Y3884406D01*
X9561047Y3873484D01*
X9561047Y3851640D01*
X9566635Y3840718D01*
X9577557Y3829796D01*
X9588479Y3824462D01*
X9604735Y3818874D01*
X9631913Y3818874D01*
X9648423Y3824462D01*
X9659345Y3829796D01*
X9670267Y3840718D01*
X9675601Y3851640D01*
X9675601Y3873484D01*
X9670267Y3884406D01*
X9659345Y3895328D01*
X9648423Y3900662D01*
X9588479Y4018518D02*
G01*
X9577557Y4013184D01*
X9566635Y4002262D01*
X9561047Y3991340D01*
X9561047Y3969496D01*
X9566635Y3958574D01*
X9577557Y3947652D01*
X9588479Y3942318D01*
X9604735Y3936730D01*
X9631913Y3936730D01*
X9648423Y3942318D01*
X9659345Y3947652D01*
X9670267Y3958574D01*
X9675601Y3969496D01*
X9675601Y3991340D01*
X9670267Y4002262D01*
X9659345Y4013184D01*
X9648423Y4018518D01*
X9764247Y3708384D02*
G01*
X9878801Y3708384D01*
X9764247Y3708384D02*
G01*
X9878801Y3752072D01*
X9764247Y3795760D02*
G01*
X9878801Y3752072D01*
X9764247Y3795760D02*
G01*
X9878801Y3795760D01*
X9764247Y3831574D02*
G01*
X9878801Y3831574D01*
X9780757Y3944096D02*
G01*
X9769835Y3933174D01*
X9764247Y3916664D01*
X9764247Y3894820D01*
X9769835Y3878564D01*
X9780757Y3867642D01*
X9791679Y3867642D01*
X9802601Y3873230D01*
X9807935Y3878564D01*
X9813523Y3889486D01*
X9824445Y3922252D01*
X9829779Y3933174D01*
X9835113Y3938508D01*
X9846035Y3944096D01*
X9862545Y3944096D01*
X9873467Y3933174D01*
X9878801Y3916664D01*
X9878801Y3894820D01*
X9873467Y3878564D01*
X9862545Y3867642D01*
X9764247Y4012676D02*
G01*
X9769835Y4001754D01*
X9780757Y3990832D01*
X9791679Y3985498D01*
X9807935Y3979910D01*
X9835113Y3979910D01*
X9851623Y3985498D01*
X9862545Y3990832D01*
X9873467Y4001754D01*
X9878801Y4012676D01*
X9878801Y4034520D01*
X9873467Y4045442D01*
X9862545Y4056364D01*
X9851623Y4061952D01*
X9835113Y4067286D01*
X9807935Y4067286D01*
X9791679Y4061952D01*
X9780757Y4056364D01*
X9769835Y4045442D01*
X9764247Y4034520D01*
X9764247Y4012676D01*
X9967447Y3708384D02*
G01*
X10082001Y3708384D01*
X9967447Y3708384D02*
G01*
X10082001Y3752072D01*
X9967447Y3795760D02*
G01*
X10082001Y3752072D01*
X9967447Y3795760D02*
G01*
X10082001Y3795760D01*
X9967447Y3864340D02*
G01*
X9973035Y3853418D01*
X9983957Y3842496D01*
X9994879Y3837162D01*
X10011135Y3831574D01*
X10038313Y3831574D01*
X10054823Y3837162D01*
X10065745Y3842496D01*
X10076667Y3853418D01*
X10082001Y3864340D01*
X10082001Y3886184D01*
X10076667Y3897106D01*
X10065745Y3908028D01*
X10054823Y3913362D01*
X10038313Y3918950D01*
X10011135Y3918950D01*
X9994879Y3913362D01*
X9983957Y3908028D01*
X9973035Y3897106D01*
X9967447Y3886184D01*
X9967447Y3864340D01*
X9983957Y4031218D02*
G01*
X9973035Y4020296D01*
X9967447Y4004040D01*
X9967447Y3982196D01*
X9973035Y3965940D01*
X9983957Y3955018D01*
X9994879Y3955018D01*
X10005801Y3960352D01*
X10011135Y3965940D01*
X10016723Y3976862D01*
X10027645Y4009374D01*
X10032979Y4020296D01*
X10038313Y4025884D01*
X10049235Y4031218D01*
X10065745Y4031218D01*
X10076667Y4020296D01*
X10082001Y4004040D01*
X10082001Y3982196D01*
X10076667Y3965940D01*
X10065745Y3955018D01*
X9967447Y4067286D02*
G01*
X10082001Y4067286D01*
X10187157Y3772138D02*
G01*
X10176235Y3761216D01*
X10170647Y3744706D01*
X10170647Y3722862D01*
X10176235Y3706606D01*
X10187157Y3695684D01*
X10198079Y3695684D01*
X10209001Y3701018D01*
X10214335Y3706606D01*
X10219923Y3717528D01*
X10230845Y3750294D01*
X10236179Y3761216D01*
X10241513Y3766550D01*
X10252435Y3772138D01*
X10268945Y3772138D01*
X10279867Y3761216D01*
X10285201Y3744706D01*
X10285201Y3722862D01*
X10279867Y3706606D01*
X10268945Y3695684D01*
X10198079Y3889740D02*
G01*
X10187157Y3884406D01*
X10176235Y3873484D01*
X10170647Y3862562D01*
X10170647Y3840718D01*
X10176235Y3829796D01*
X10187157Y3818874D01*
X10198079Y3813540D01*
X10214335Y3807952D01*
X10241513Y3807952D01*
X10258023Y3813540D01*
X10268945Y3818874D01*
X10279867Y3829796D01*
X10285201Y3840718D01*
X10285201Y3862562D01*
X10279867Y3873484D01*
X10268945Y3884406D01*
X10258023Y3889740D01*
X10170647Y3925808D02*
G01*
X10285201Y3925808D01*
X10170647Y4002262D02*
G01*
X10247101Y3925808D01*
X10219923Y3953240D02*
G01*
X10285201Y4002262D01*
X10401279Y3777472D02*
G01*
X10390357Y3772138D01*
X10379435Y3761216D01*
X10373847Y3750294D01*
X10373847Y3728450D01*
X10379435Y3717528D01*
X10390357Y3706606D01*
X10401279Y3701018D01*
X10417535Y3695684D01*
X10444713Y3695684D01*
X10461223Y3701018D01*
X10472145Y3706606D01*
X10483067Y3717528D01*
X10488401Y3728450D01*
X10488401Y3750294D01*
X10483067Y3761216D01*
X10472145Y3772138D01*
X10461223Y3777472D01*
X10390357Y3889740D02*
G01*
X10379435Y3879072D01*
X10373847Y3862562D01*
X10373847Y3840718D01*
X10379435Y3824462D01*
X10390357Y3813540D01*
X10401279Y3813540D01*
X10412201Y3818874D01*
X10417535Y3824462D01*
X10423123Y3835384D01*
X10434045Y3868150D01*
X10439379Y3879072D01*
X10444713Y3884406D01*
X10455635Y3889740D01*
X10472145Y3889740D01*
X10483067Y3879072D01*
X10488401Y3862562D01*
X10488401Y3840718D01*
X10483067Y3824462D01*
X10472145Y3813540D01*
X10874735Y3543284D02*
G01*
X11068537Y3543284D01*
X10874735Y3543284D02*
G01*
X11068537Y3617198D01*
X10874735Y3691112D02*
G01*
X11068537Y3617198D01*
X10874735Y3691112D02*
G01*
X11068537Y3691112D01*
X10874735Y3752072D02*
G01*
X11068537Y3752072D01*
X10920709Y3951462D02*
G01*
X10902421Y3942318D01*
X10883879Y3923776D01*
X10874735Y3905234D01*
X10874735Y3868404D01*
X10883879Y3849862D01*
X10902421Y3831574D01*
X10920709Y3822176D01*
X10948649Y3813032D01*
X10994623Y3813032D01*
X11022309Y3822176D01*
X11040851Y3831574D01*
X11059393Y3849862D01*
X11068537Y3868404D01*
X11068537Y3905234D01*
X11059393Y3923776D01*
X11040851Y3942318D01*
X11022309Y3951462D01*
X10874735Y4012422D02*
G01*
X11068537Y4012422D01*
X10874735Y4012422D02*
G01*
X10874735Y4095734D01*
X10883879Y4123420D01*
X10893023Y4132564D01*
X10911565Y4141708D01*
X10930107Y4141708D01*
X10948649Y4132564D01*
X10957793Y4123420D01*
X10966937Y4095734D01*
X10966937Y4012422D01*
X10966937Y4077192D02*
G01*
X11068537Y4141708D01*
X10874735Y4258294D02*
G01*
X10883879Y4239752D01*
X10902421Y4221210D01*
X10920709Y4212066D01*
X10948649Y4202668D01*
X10994623Y4202668D01*
X11022309Y4212066D01*
X11040851Y4221210D01*
X11059393Y4239752D01*
X11068537Y4258294D01*
X11068537Y4295124D01*
X11059393Y4313666D01*
X11040851Y4331954D01*
X11022309Y4341352D01*
X10994623Y4350496D01*
X10948649Y4350496D01*
X10920709Y4341352D01*
X10902421Y4331954D01*
X10883879Y4313666D01*
X10874735Y4295124D01*
X10874735Y4258294D01*
X10902421Y4682982D02*
G01*
X10883879Y4664694D01*
X10874735Y4636754D01*
X10874735Y4599924D01*
X10883879Y4572238D01*
X10902421Y4553696D01*
X10920709Y4553696D01*
X10939251Y4563094D01*
X10948649Y4572238D01*
X10957793Y4590780D01*
X10976335Y4646152D01*
X10985479Y4664694D01*
X10994623Y4673838D01*
X11013165Y4682982D01*
X11040851Y4682982D01*
X11059393Y4664694D01*
X11068537Y4636754D01*
X11068537Y4599924D01*
X11059393Y4572238D01*
X11040851Y4553696D01*
X10874735Y4743942D02*
G01*
X11068537Y4743942D01*
X10874735Y4743942D02*
G01*
X10874735Y4808712D01*
X10883879Y4836398D01*
X10902421Y4854940D01*
X10920709Y4864084D01*
X10948649Y4873228D01*
X10994623Y4873228D01*
X11022309Y4864084D01*
X11040851Y4854940D01*
X11059393Y4836398D01*
X11068537Y4808712D01*
X11068537Y4743942D01*
X11179535Y3543284D02*
G01*
X11373337Y3543284D01*
X11179535Y3543284D02*
G01*
X11373337Y3617198D01*
X11179535Y3691112D02*
G01*
X11373337Y3617198D01*
X11179535Y3691112D02*
G01*
X11373337Y3691112D01*
X11179535Y3807444D02*
G01*
X11188679Y3788902D01*
X11207221Y3770614D01*
X11225509Y3761216D01*
X11253449Y3752072D01*
X11299423Y3752072D01*
X11327109Y3761216D01*
X11345651Y3770614D01*
X11364193Y3788902D01*
X11373337Y3807444D01*
X11373337Y3844274D01*
X11364193Y3862816D01*
X11345651Y3881358D01*
X11327109Y3890502D01*
X11299423Y3899900D01*
X11253449Y3899900D01*
X11225509Y3890502D01*
X11207221Y3881358D01*
X11188679Y3862816D01*
X11179535Y3844274D01*
X11179535Y3807444D01*
X11179535Y3960860D02*
G01*
X11373337Y3960860D01*
X11179535Y3960860D02*
G01*
X11179535Y4025376D01*
X11188679Y4053062D01*
X11207221Y4071604D01*
X11225509Y4080748D01*
X11253449Y4090146D01*
X11299423Y4090146D01*
X11327109Y4080748D01*
X11345651Y4071604D01*
X11364193Y4053062D01*
X11373337Y4025376D01*
X11373337Y3960860D01*
X11179535Y4151106D02*
G01*
X11317965Y4151106D01*
X11345651Y4160250D01*
X11364193Y4178792D01*
X11373337Y4206478D01*
X11373337Y4225020D01*
X11364193Y4252706D01*
X11345651Y4270994D01*
X11317965Y4280392D01*
X11179535Y4280392D01*
X11179535Y4341352D02*
G01*
X11373337Y4341352D01*
X11373337Y4341352D02*
G01*
X11373337Y4452096D01*
X11179535Y4513056D02*
G01*
X11373337Y4513056D01*
X11179535Y4513056D02*
G01*
X11179535Y4633198D01*
X11271737Y4513056D02*
G01*
X11271737Y4586970D01*
X11373337Y4513056D02*
G01*
X11373337Y4633198D01*
D12*
X203222Y5779521D02*
G01*
X203222Y5701543D01*
X208302Y5686049D01*
X218716Y5675635D01*
X234464Y5670555D01*
X244878Y5670555D01*
X260372Y5675635D01*
X270786Y5686049D01*
X275866Y5701543D01*
X275866Y5779521D01*
X351812Y5779521D02*
G01*
X310156Y5670555D01*
X351812Y5779521D02*
G01*
X393468Y5670555D01*
X325904Y5706877D02*
G01*
X377720Y5706877D01*
X427758Y5779521D02*
G01*
X427758Y5670555D01*
X427758Y5779521D02*
G01*
X474494Y5779521D01*
X489988Y5774441D01*
X495068Y5769107D01*
X500402Y5758693D01*
X500402Y5748279D01*
X495068Y5737865D01*
X489988Y5732785D01*
X474494Y5727705D01*
X427758Y5727705D01*
X464080Y5727705D02*
G01*
X500402Y5670555D01*
X571014Y5779521D02*
G01*
X571014Y5670555D01*
X534692Y5779521D02*
G01*
X607336Y5779521D01*
X672868Y5779521D02*
G01*
X657374Y5774441D01*
X646960Y5758693D01*
X641626Y5732785D01*
X641626Y5717291D01*
X646960Y5691129D01*
X657374Y5675635D01*
X672868Y5670555D01*
X683282Y5670555D01*
X698776Y5675635D01*
X709190Y5691129D01*
X714524Y5717291D01*
X714524Y5732785D01*
X709190Y5758693D01*
X698776Y5774441D01*
X683282Y5779521D01*
X672868Y5779521D01*
X203225Y3137893D02*
G01*
X203225Y3059915D01*
X208305Y3044421D01*
X218719Y3034007D01*
X234467Y3028927D01*
X244881Y3028927D01*
X260375Y3034007D01*
X270789Y3044421D01*
X275869Y3059915D01*
X275869Y3137893D01*
X351815Y3137893D02*
G01*
X310159Y3028927D01*
X351815Y3137893D02*
G01*
X393471Y3028927D01*
X325907Y3065249D02*
G01*
X377723Y3065249D01*
X427761Y3137893D02*
G01*
X427761Y3028927D01*
X427761Y3137893D02*
G01*
X474497Y3137893D01*
X489991Y3132813D01*
X495071Y3127479D01*
X500405Y3117065D01*
X500405Y3106651D01*
X495071Y3096237D01*
X489991Y3091157D01*
X474497Y3086077D01*
X427761Y3086077D01*
X464083Y3086077D02*
G01*
X500405Y3028927D01*
X571017Y3137893D02*
G01*
X571017Y3028927D01*
X534695Y3137893D02*
G01*
X607339Y3137893D01*
X641629Y3117065D02*
G01*
X652043Y3122399D01*
X667791Y3137893D01*
X667791Y3028927D01*
X203222Y3823705D02*
G01*
X203222Y3745727D01*
X208302Y3730233D01*
X218716Y3719819D01*
X234464Y3714739D01*
X244878Y3714739D01*
X260372Y3719819D01*
X270786Y3730233D01*
X275866Y3745727D01*
X275866Y3823705D01*
X351812Y3823705D02*
G01*
X310156Y3714739D01*
X351812Y3823705D02*
G01*
X393468Y3714739D01*
X325904Y3751061D02*
G01*
X377720Y3751061D01*
X427758Y3823705D02*
G01*
X427758Y3714739D01*
X427758Y3823705D02*
G01*
X474494Y3823705D01*
X489988Y3818625D01*
X495068Y3813291D01*
X500402Y3802877D01*
X500402Y3792463D01*
X495068Y3782049D01*
X489988Y3776969D01*
X474494Y3771889D01*
X427758Y3771889D01*
X464080Y3771889D02*
G01*
X500402Y3714739D01*
X571014Y3823705D02*
G01*
X571014Y3714739D01*
X534692Y3823705D02*
G01*
X607336Y3823705D01*
X646960Y3797797D02*
G01*
X646960Y3802877D01*
X652040Y3813291D01*
X657374Y3818625D01*
X667788Y3823705D01*
X688362Y3823705D01*
X698776Y3818625D01*
X704110Y3813291D01*
X709190Y3802877D01*
X709190Y3792463D01*
X704110Y3782049D01*
X693696Y3766555D01*
X641626Y3714739D01*
X714524Y3714739D01*
X203225Y1423410D02*
G01*
X203225Y1345432D01*
X208305Y1329938D01*
X218719Y1319524D01*
X234467Y1314444D01*
X244881Y1314444D01*
X260375Y1319524D01*
X270789Y1329938D01*
X275869Y1345432D01*
X275869Y1423410D01*
X351815Y1423410D02*
G01*
X310159Y1314444D01*
X351815Y1423410D02*
G01*
X393471Y1314444D01*
X325907Y1350766D02*
G01*
X377723Y1350766D01*
X427761Y1423410D02*
G01*
X427761Y1314444D01*
X427761Y1423410D02*
G01*
X474497Y1423410D01*
X489991Y1418330D01*
X495071Y1412996D01*
X500405Y1402582D01*
X500405Y1392168D01*
X495071Y1381754D01*
X489991Y1376674D01*
X474497Y1371594D01*
X427761Y1371594D01*
X464083Y1371594D02*
G01*
X500405Y1314444D01*
X571017Y1423410D02*
G01*
X571017Y1314444D01*
X534695Y1423410D02*
G01*
X607339Y1423410D01*
X652043Y1423410D02*
G01*
X709193Y1423410D01*
X677951Y1381754D01*
X693699Y1381754D01*
X704113Y1376674D01*
X709193Y1371594D01*
X714527Y1355846D01*
X714527Y1345432D01*
X709193Y1329938D01*
X698779Y1319524D01*
X683285Y1314444D01*
X667791Y1314444D01*
X652043Y1319524D01*
X646963Y1324604D01*
X641629Y1335018D01*
X1193794Y6723877D02*
G01*
X1204208Y6729211D01*
X1219702Y6744705D01*
X1219702Y6635739D01*
X1259326Y6718797D02*
G01*
X1259326Y6723877D01*
X1264406Y6734291D01*
X1269740Y6739625D01*
X1280154Y6744705D01*
X1300728Y6744705D01*
X1311142Y6739625D01*
X1316476Y6734291D01*
X1321556Y6723877D01*
X1321556Y6713463D01*
X1316476Y6703049D01*
X1306062Y6687555D01*
X1253992Y6635739D01*
X1326890Y6635739D01*
X1361180Y6744705D02*
G01*
X1402582Y6635739D01*
X1444238Y6744705D02*
G01*
X1402582Y6635739D01*
X1478528Y6744705D02*
G01*
X1478528Y6635739D01*
X1512818Y6744705D02*
G01*
X1512818Y6635739D01*
X1512818Y6744705D02*
G01*
X1585462Y6635739D01*
X1585462Y6744705D02*
G01*
X1585462Y6635739D01*
X1619752Y6744705D02*
G01*
X1619752Y6635739D01*
X1619752Y6744705D02*
G01*
X1666488Y6744705D01*
X1682236Y6739625D01*
X1687316Y6734291D01*
X1692650Y6723877D01*
X1692650Y6708383D01*
X1687316Y6697969D01*
X1682236Y6692889D01*
X1666488Y6687555D01*
X1619752Y6687555D01*
X1726940Y6744705D02*
G01*
X1726940Y6666727D01*
X1732020Y6651233D01*
X1742434Y6640819D01*
X1757928Y6635739D01*
X1768342Y6635739D01*
X1784090Y6640819D01*
X1794504Y6651233D01*
X1799584Y6666727D01*
X1799584Y6744705D01*
X1870196Y6744705D02*
G01*
X1870196Y6635739D01*
X1833874Y6744705D02*
G01*
X1906518Y6744705D01*
X2881624Y6770103D02*
G01*
X2829808Y6770103D01*
X2824474Y6723367D01*
X2829808Y6728447D01*
X2845302Y6733781D01*
X2861050Y6733781D01*
X2876544Y6728447D01*
X2886958Y6718287D01*
X2892038Y6702539D01*
X2892038Y6692125D01*
X2886958Y6676631D01*
X2876544Y6666217D01*
X2861050Y6661137D01*
X2845302Y6661137D01*
X2829808Y6666217D01*
X2824474Y6671297D01*
X2819394Y6681711D01*
X2926328Y6770103D02*
G01*
X2967984Y6661137D01*
X3009640Y6770103D02*
G01*
X2967984Y6661137D01*
X3043930Y6770103D02*
G01*
X3043930Y6661137D01*
X3078220Y6770103D02*
G01*
X3078220Y6661137D01*
X3078220Y6770103D02*
G01*
X3150864Y6661137D01*
X3150864Y6770103D02*
G01*
X3150864Y6661137D01*
X3185154Y6770103D02*
G01*
X3185154Y6661137D01*
X3185154Y6770103D02*
G01*
X3231890Y6770103D01*
X3247384Y6765023D01*
X3252718Y6759689D01*
X3257798Y6749275D01*
X3257798Y6733781D01*
X3252718Y6723367D01*
X3247384Y6718287D01*
X3231890Y6712953D01*
X3185154Y6712953D01*
X3292088Y6770103D02*
G01*
X3292088Y6692125D01*
X3297422Y6676631D01*
X3307836Y6666217D01*
X3323330Y6661137D01*
X3333744Y6661137D01*
X3349238Y6666217D01*
X3359652Y6676631D01*
X3364986Y6692125D01*
X3364986Y6770103D01*
X3435598Y6770103D02*
G01*
X3435598Y6661137D01*
X3399276Y6770103D02*
G01*
X3471920Y6770103D01*
X2527287Y3163305D02*
G01*
X2527287Y3054339D01*
X2527287Y3054339D02*
G01*
X2589517Y3054339D01*
X2623807Y3163305D02*
G01*
X2623807Y3054339D01*
X2623807Y3163305D02*
G01*
X2691371Y3163305D01*
X2623807Y3111489D02*
G01*
X2665463Y3111489D01*
X2623807Y3054339D02*
G01*
X2691371Y3054339D01*
X2725661Y3163305D02*
G01*
X2725661Y3054339D01*
X2725661Y3163305D02*
G01*
X2762237Y3163305D01*
X2777731Y3158225D01*
X2788145Y3147811D01*
X2793225Y3137397D01*
X2798559Y3121649D01*
X2798559Y3095741D01*
X2793225Y3080247D01*
X2788145Y3069833D01*
X2777731Y3059419D01*
X2762237Y3054339D01*
X2725661Y3054339D01*
X2837929Y3137397D02*
G01*
X2837929Y3142477D01*
X2843263Y3152891D01*
X2848343Y3158225D01*
X2858757Y3163305D01*
X2879585Y3163305D01*
X2889999Y3158225D01*
X2895079Y3152891D01*
X2900413Y3142477D01*
X2900413Y3132063D01*
X2895079Y3121649D01*
X2884665Y3106155D01*
X2832849Y3054339D01*
X2905493Y3054339D01*
X3985252Y2745480D02*
G01*
X3985252Y2696966D01*
X4017510Y2745480D02*
G01*
X3985252Y2713222D01*
X3996682Y2724652D02*
G01*
X4017510Y2696966D01*
X3606797Y6033505D02*
G01*
X3606797Y5955527D01*
X3611877Y5940033D01*
X3622291Y5929619D01*
X3638039Y5924539D01*
X3648453Y5924539D01*
X3663947Y5929619D01*
X3674361Y5940033D01*
X3679441Y5955527D01*
X3679441Y6033505D01*
X3724145Y6033505D02*
G01*
X3781295Y6033505D01*
X3750307Y5991849D01*
X3765801Y5991849D01*
X3776215Y5986769D01*
X3781295Y5981689D01*
X3786629Y5965941D01*
X3786629Y5955527D01*
X3781295Y5940033D01*
X3770881Y5929619D01*
X3755387Y5924539D01*
X3739893Y5924539D01*
X3724145Y5929619D01*
X3719065Y5934699D01*
X3713731Y5945113D01*
D11*
X1447797Y5361167D02*
G01*
X1447797Y5167365D01*
X1508757Y5296651D02*
G01*
X1508757Y5167365D01*
X1508757Y5259567D02*
G01*
X1536443Y5287253D01*
X1554985Y5296651D01*
X1582671Y5296651D01*
X1601213Y5287253D01*
X1610357Y5259567D01*
X1610357Y5167365D01*
X1896615Y5333481D02*
G01*
X1896615Y5167365D01*
X1813557Y5250423D02*
G01*
X1979927Y5250423D01*
X1473197Y4307067D02*
G01*
X1473197Y4113265D01*
X1534157Y4242551D02*
G01*
X1534157Y4113265D01*
X1534157Y4205467D02*
G01*
X1561843Y4233153D01*
X1580385Y4242551D01*
X1608071Y4242551D01*
X1626613Y4233153D01*
X1635757Y4205467D01*
X1635757Y4113265D01*
X1838957Y4196323D02*
G01*
X2005327Y4196323D01*
X5097269Y5361167D02*
G01*
X5078727Y5352023D01*
X5060439Y5333481D01*
X5051041Y5314939D01*
X5041897Y5287253D01*
X5041897Y5241279D01*
X5051041Y5213339D01*
X5060439Y5195051D01*
X5078727Y5176509D01*
X5097269Y5167365D01*
X5134353Y5167365D01*
X5152641Y5176509D01*
X5171183Y5195051D01*
X5180327Y5213339D01*
X5189725Y5241279D01*
X5189725Y5287253D01*
X5180327Y5314939D01*
X5171183Y5333481D01*
X5152641Y5352023D01*
X5134353Y5361167D01*
X5097269Y5361167D01*
X5250685Y5296651D02*
G01*
X5250685Y5204195D01*
X5259829Y5176509D01*
X5278371Y5167365D01*
X5306057Y5167365D01*
X5324599Y5176509D01*
X5352285Y5204195D01*
X5352285Y5296651D02*
G01*
X5352285Y5167365D01*
X5440931Y5361167D02*
G01*
X5440931Y5204195D01*
X5450075Y5176509D01*
X5468617Y5167365D01*
X5487159Y5167365D01*
X5413245Y5296651D02*
G01*
X5477761Y5296651D01*
X5773417Y5333481D02*
G01*
X5773417Y5167365D01*
X5690359Y5250423D02*
G01*
X5856475Y5250423D01*
X5071869Y4256267D02*
G01*
X5053327Y4247123D01*
X5035039Y4228581D01*
X5025641Y4210039D01*
X5016497Y4182353D01*
X5016497Y4136379D01*
X5025641Y4108439D01*
X5035039Y4090151D01*
X5053327Y4071609D01*
X5071869Y4062465D01*
X5108953Y4062465D01*
X5127241Y4071609D01*
X5145783Y4090151D01*
X5154927Y4108439D01*
X5164325Y4136379D01*
X5164325Y4182353D01*
X5154927Y4210039D01*
X5145783Y4228581D01*
X5127241Y4247123D01*
X5108953Y4256267D01*
X5071869Y4256267D01*
X5225285Y4191751D02*
G01*
X5225285Y4099295D01*
X5234429Y4071609D01*
X5252971Y4062465D01*
X5280657Y4062465D01*
X5299199Y4071609D01*
X5326885Y4099295D01*
X5326885Y4191751D02*
G01*
X5326885Y4062465D01*
X5415531Y4256267D02*
G01*
X5415531Y4099295D01*
X5424675Y4071609D01*
X5443217Y4062465D01*
X5461759Y4062465D01*
X5387845Y4191751D02*
G01*
X5452361Y4191751D01*
X5664959Y4145523D02*
G01*
X5831075Y4145523D01*
X3149597Y4154667D02*
G01*
X3149597Y3960865D01*
X3149597Y4154667D02*
G01*
X3232655Y4154667D01*
X3260341Y4145523D01*
X3269739Y4136379D01*
X3278883Y4117837D01*
X3278883Y4099295D01*
X3269739Y4080753D01*
X3260341Y4071609D01*
X3232655Y4062465D01*
X3149597Y4062465D02*
G01*
X3232655Y4062465D01*
X3260341Y4053067D01*
X3269739Y4043923D01*
X3278883Y4025381D01*
X3278883Y3997695D01*
X3269739Y3979153D01*
X3260341Y3970009D01*
X3232655Y3960865D01*
X3149597Y3960865D01*
X3339843Y4154667D02*
G01*
X3339843Y4016237D01*
X3348987Y3988551D01*
X3367529Y3970009D01*
X3395215Y3960865D01*
X3413757Y3960865D01*
X3441443Y3970009D01*
X3459985Y3988551D01*
X3469129Y4016237D01*
X3469129Y4154667D01*
X3668773Y4108439D02*
G01*
X3659375Y4126981D01*
X3641087Y4145523D01*
X3622545Y4154667D01*
X3585461Y4154667D01*
X3567173Y4145523D01*
X3548631Y4126981D01*
X3539487Y4108439D01*
X3530089Y4080753D01*
X3530089Y4034779D01*
X3539487Y4006839D01*
X3548631Y3988551D01*
X3567173Y3970009D01*
X3585461Y3960865D01*
X3622545Y3960865D01*
X3641087Y3970009D01*
X3659375Y3988551D01*
X3668773Y4006839D01*
X3729733Y4154667D02*
G01*
X3729733Y3960865D01*
X3859019Y4154667D02*
G01*
X3729733Y4025381D01*
X3775707Y4071609D02*
G01*
X3859019Y3960865D01*
D12*
X2325877Y6756908D02*
G01*
X2320543Y6767321D01*
X2310129Y6777736D01*
X2299970Y6782815D01*
X2279141Y6782815D01*
X2268727Y6777736D01*
X2258313Y6767321D01*
X2252979Y6756908D01*
X2247900Y6741160D01*
X2247900Y6715252D01*
X2252979Y6699758D01*
X2258313Y6689344D01*
X2268727Y6678929D01*
X2279141Y6673595D01*
X2299970Y6673595D01*
X2310129Y6678929D01*
X2320543Y6689344D01*
X2325877Y6699758D01*
X2325877Y6715252D01*
X2299970Y6715252D02*
G01*
X2325877Y6715252D01*
X2360168Y6782815D02*
G01*
X2360168Y6673595D01*
X2360168Y6782815D02*
G01*
X2432811Y6673595D01*
X2432811Y6782815D02*
G01*
X2432811Y6673595D01*
X2467102Y6782815D02*
G01*
X2467102Y6673595D01*
X2467102Y6782815D02*
G01*
X2503424Y6782815D01*
X2519172Y6777736D01*
X2529586Y6767321D01*
X2534665Y6756908D01*
X2540000Y6741160D01*
X2540000Y6715252D01*
X2534665Y6699758D01*
X2529586Y6689344D01*
X2519172Y6678929D01*
X2503424Y6673595D01*
X2467102Y6673595D01*
X2626106Y6782815D02*
G01*
X2574290Y6710171D01*
X2652013Y6710171D01*
X2626106Y6782815D02*
G01*
X2626106Y6673595D01*
X687578Y6718808D02*
G01*
X682244Y6729221D01*
X671829Y6739636D01*
X661670Y6744715D01*
X640842Y6744715D01*
X630428Y6739636D01*
X620013Y6729221D01*
X614679Y6718808D01*
X609600Y6703060D01*
X609600Y6677152D01*
X614679Y6661658D01*
X620013Y6651244D01*
X630428Y6640829D01*
X640842Y6635495D01*
X661670Y6635495D01*
X671829Y6640829D01*
X682244Y6651244D01*
X687578Y6661658D01*
X687578Y6677152D01*
X661670Y6677152D02*
G01*
X687578Y6677152D01*
X721868Y6744715D02*
G01*
X721868Y6635495D01*
X721868Y6744715D02*
G01*
X794512Y6635495D01*
X794512Y6744715D02*
G01*
X794512Y6635495D01*
X828802Y6744715D02*
G01*
X828802Y6635495D01*
X828802Y6744715D02*
G01*
X865123Y6744715D01*
X880871Y6739636D01*
X891286Y6729221D01*
X896365Y6718808D01*
X901700Y6703060D01*
X901700Y6677152D01*
X896365Y6661658D01*
X891286Y6651244D01*
X880871Y6640829D01*
X865123Y6635495D01*
X828802Y6635495D01*
X998220Y6744715D02*
G01*
X946150Y6744715D01*
X941070Y6697979D01*
X946150Y6703060D01*
X961897Y6708394D01*
X977392Y6708394D01*
X993139Y6703060D01*
X1003300Y6692645D01*
X1008634Y6677152D01*
X1008634Y6666737D01*
X1003300Y6651244D01*
X993139Y6640829D01*
X977392Y6635495D01*
X961897Y6635495D01*
X946150Y6640829D01*
X941070Y6645910D01*
X935989Y6656323D01*
X5346689Y6592303D02*
G01*
X5346689Y6514325D01*
X5351769Y6498831D01*
X5362183Y6488417D01*
X5377931Y6483337D01*
X5388345Y6483337D01*
X5403839Y6488417D01*
X5414253Y6498831D01*
X5419333Y6514325D01*
X5419333Y6592303D01*
X5505693Y6592303D02*
G01*
X5453623Y6519659D01*
X5531601Y6519659D01*
X5505693Y6592303D02*
G01*
X5505693Y6483337D01*
D13*
X10210774Y6464292D02*
G01*
X10007574Y6540492D01*
X9651974Y6540492D01*
X9651974Y5041892D01*
X11150574Y5041892D01*
X11150574Y6464292D01*
X10210774Y6464292D01*
D14*
X9245574Y2552692D02*
G01*
X9245574Y6769092D01*
X10007574Y6769092D01*
X10159974Y6616692D01*
X10921974Y6616692D01*
X11074374Y6769092D01*
X11582374Y6769092D01*
X11582374Y2552692D01*
X9245574Y2552692D01*
X11201374Y6591292D02*
G01*
X11125174Y6515092D01*
X11048974Y6591292D01*
X11125174Y6718292D02*
G01*
X11125174Y6540492D01*
X6608069Y6550497D02*
G01*
X8708064Y6550497D01*
X8708064Y1450507D01*
X6608069Y1450507D01*
X6608069Y6550497D01*
X336550Y5600519D02*
G01*
X603250Y5600519D01*
X603250Y4838519D01*
X336550Y4838519D01*
X336550Y5600519D01*
X336550Y2933694D02*
G01*
X603250Y2933694D01*
X603250Y2171694D01*
X336550Y2171694D01*
X336550Y2933694D01*
X336550Y4724392D02*
G01*
X603250Y4724392D01*
X603250Y3962392D01*
X336550Y3962392D01*
X336550Y4724392D01*
X647545Y457194D02*
G01*
X380845Y457194D01*
X380845Y1219194D01*
X647545Y1219194D01*
X647545Y457194D01*
X3274052Y3322314D02*
G01*
X3792212Y3322314D01*
X3274052Y2824474D02*
G01*
X3792212Y2824474D01*
X3792212Y2824474D02*
G01*
X3893812Y2824474D01*
X3792212Y3362954D02*
G01*
X3792212Y2824474D01*
X3893812Y3362954D02*
G01*
X3893812Y2824474D01*
X3792212Y3362954D02*
G01*
X3893812Y3362954D01*
X1269997Y5880089D02*
G01*
X5943597Y5880089D01*
X5943597Y3543289D01*
X1269997Y3543289D01*
X1269997Y5880089D01*
X4965689Y6451587D02*
G01*
X5727689Y6451587D01*
X5727689Y6197587D01*
X4965689Y6197587D01*
X4965689Y6451587D01*
G75*
G01*
X3273054Y3323394D02*
G03*
X3273054Y2823395I0J-249999D01*
M02*
